<svg width="360" height="201" viewBox="0 0 360 201" fill="none" xmlns="http://www.w3.org/2000/svg">
<path d="M63.6679 78.0708C57.472 96.517 41.3128 120.318 32.4492 153.079C23.5856 185.84 21.8542 199.217 21.8542 199.217L19.132 201H16.0776C18.2554 194.74 23.8632 177.319 30.6961 146.995C39.4889 107.973 59.2088 91.5515 62.6824 73.8789C64.049 66.9163 64.3811 56.2886 64.2776 45.9681C64.1143 30.0951 62.9274 14.9409 62.9274 14.9409C62.9274 14.9409 65.2849 30.1336 66.0253 46.4565C66.5534 58.1321 66.2486 70.3839 63.6679 78.0708Z" fill="#442D20"/>
<path d="M52.1635 100.314C53.7533 102.508 53.3721 106.135 51.178 105.652C48.9839 105.169 44.9495 98.8981 47.5683 99.0188C49.1769 99.0984 50.7472 99.5409 52.1635 100.314Z" fill="#4A9151"/>
<path d="M39.6406 112.516C38.1162 114.766 34.6045 115.611 34.3214 113.367C34.0382 111.123 38.5517 105.191 39.3194 107.715C39.7794 109.272 39.8891 110.912 39.6406 112.516Z" fill="#234C24"/>
<path d="M63.5263 106.623C61.1851 110.069 55.7897 111.375 55.3596 107.929C54.9294 104.484 61.8494 95.3757 63.0308 99.2493C63.7389 101.639 63.9082 104.159 63.5263 106.623Z" fill="#4A9151"/>
<path d="M37.0228 116.577C41.128 117.192 44.6451 121.515 41.765 123.408C38.8849 125.301 27.7237 123.019 30.6637 120.253C32.4857 118.566 34.6582 117.311 37.0228 116.577Z" fill="#4A9151"/>
<path d="M55.561 116.763C54.5047 119.265 51.2054 120.801 50.5139 118.656C49.8225 116.51 53.0511 109.8 54.3251 112.121C55.0751 113.556 55.4973 115.142 55.561 116.763Z" fill="#234C24"/>
<path d="M59.2468 125.623C61.1632 127.538 61.3538 131.176 59.1161 131.05C56.8784 130.924 51.9022 125.382 54.5046 125.075C56.1062 124.899 57.7264 125.086 59.2468 125.623Z" fill="#307735"/>
<path d="M47.4759 114.464C46.7736 117.086 43.7356 119.056 42.7338 117.031C41.732 115.007 44.0514 107.912 45.603 110.036C46.548 111.352 47.188 112.865 47.4759 114.464Z" fill="#4A9151"/>
<path d="M41.3781 130.918C38.7212 131.412 35.6505 129.503 37.0225 127.72C38.3945 125.937 45.7337 124.976 44.525 127.303C43.7583 128.731 42.6828 129.966 41.3781 130.918Z" fill="#4A9151"/>
<path d="M49.0491 107.172C50.5463 106.898 52.2722 107.979 51.4936 108.983C50.7151 109.987 46.5936 110.514 47.2687 109.202C47.7054 108.401 48.3135 107.707 49.0491 107.172Z" fill="#307735"/>
<path d="M28.8553 98.2513C30.3526 97.9769 32.0785 99.0578 31.2999 100.056C30.5213 101.055 26.3999 101.587 27.0804 100.281C27.514 99.4794 28.1205 98.7857 28.8553 98.2513Z" fill="#307735"/>
<path d="M58.5066 91.1508C60.0038 90.8819 61.7297 91.9573 60.9512 92.9614C60.1726 93.9654 56.0511 94.4921 56.7262 93.1808C57.1629 92.3794 57.771 91.686 58.5066 91.1508Z" fill="#234C24"/>
<path d="M46.9042 121.322C48.396 121.048 50.1219 122.129 49.3433 123.133C48.5648 124.137 44.4433 124.663 45.1239 123.352C45.5605 122.551 46.1687 121.857 46.9042 121.322Z" fill="#4A9151"/>
<path d="M57.477 136.602C58.9688 136.328 60.6947 137.409 59.9161 138.407C59.1375 139.406 55.0161 139.938 55.6966 138.632C56.1313 137.83 56.7398 137.136 57.477 136.602Z" fill="#4A9151"/>
<path d="M25.6873 122.377C26.3733 123.743 25.8398 125.718 24.6638 125.252C23.4878 124.785 21.8054 120.939 23.2482 121.235C24.1352 121.429 24.9684 121.819 25.6873 122.377Z" fill="#307735"/>
<path d="M33.2602 125.173C34.752 124.899 36.4779 125.98 35.6993 126.984C34.9207 127.988 30.7993 128.515 31.4798 127.203C31.9165 126.402 32.5246 125.708 33.2602 125.173Z" fill="#234C24"/>
<path d="M59.4208 153.03C58.2285 155.472 54.8747 156.816 54.2758 154.638C53.6769 152.459 57.3029 145.936 58.419 148.322C59.0974 149.797 59.4397 151.405 59.4208 153.03Z" fill="#4A9151"/>
<path d="M42.87 147.543C40.1859 147.23 37.8067 144.492 39.6469 143.197C41.4872 141.903 48.7936 143.159 46.9371 145.019C45.7846 146.155 44.3951 147.017 42.87 147.543Z" fill="#234C24"/>
<path d="M59.1705 166.099C55.0545 165.617 51.3958 161.414 54.2215 159.422C57.0472 157.43 68.2683 159.367 65.4153 162.226C63.6474 163.972 61.5134 165.295 59.1705 166.099Z" fill="#4A9151"/>
<path d="M38.1113 147.115C39.4833 151.06 37.3327 156.207 34.3002 154.522C31.2676 152.838 28.0989 141.815 31.8991 143.148C34.2378 143.986 36.3605 145.342 38.1113 147.115Z" fill="#4A9151"/>
<path d="M46.5614 163.719C43.8391 163.944 40.9971 161.738 42.5433 160.097C44.0896 158.457 51.4995 158.237 50.0458 160.432C49.1412 161.775 47.9508 162.898 46.5614 163.719Z" fill="#234C24"/>
<path d="M40.4964 171.131C39.7015 173.737 36.6036 175.597 35.6671 173.545C34.7307 171.493 37.3005 164.47 38.7705 166.648C39.6713 167.993 40.2611 169.525 40.4964 171.131Z" fill="#307735"/>
<path d="M44.8131 155.438C42.178 156.031 39.0365 154.242 40.3487 152.404C41.6608 150.566 48.9673 149.332 47.8239 151.702C47.1091 153.158 46.0804 154.435 44.8131 155.438Z" fill="#4A9151"/>
<path d="M27.5216 157.672C25.8502 155.532 26.1006 151.9 28.3057 152.301C30.5107 152.701 34.7846 158.824 32.1658 158.824C30.5521 158.792 28.9658 158.398 27.5216 157.672Z" fill="#4A9151"/>
<path d="M51.9457 153.447C52.8821 154.654 52.7405 156.695 51.4992 156.464C50.2579 156.234 47.8623 152.794 49.3214 152.805C50.233 152.817 51.13 153.036 51.9457 153.447Z" fill="#307735"/>
<path d="M50.383 131.286C51.3194 132.493 51.1724 134.534 49.9311 134.309C48.6898 134.084 46.2996 130.633 47.7533 130.644C48.6662 130.659 49.5645 130.878 50.383 131.286Z" fill="#307735"/>
<path d="M69.9999 154.22V157.441H69.9672C68.7259 157.216 66.3358 153.77 67.7894 153.781C68.5466 153.791 69.2956 153.94 69.9999 154.22Z" fill="#234C24"/>
<path d="M38.5199 158.122C39.4563 159.329 39.3148 161.37 38.0734 161.14C36.8321 160.909 34.4365 157.469 35.8956 157.48C36.8072 157.492 37.7042 157.712 38.5199 158.122Z" fill="#4A9151"/>
<path d="M30.0319 174.664C30.9684 175.871 30.8214 177.912 29.58 177.687C28.3387 177.462 25.9485 174.011 27.4022 174.027C28.315 174.039 29.2136 174.256 30.0319 174.664Z" fill="#4A9151"/>
<path d="M27.7175 139.692C26.8355 140.943 24.8537 141.382 24.7121 140.12C24.5706 138.858 27.173 135.56 27.5814 136.987C27.8256 137.867 27.8721 138.791 27.7175 139.692Z" fill="#307735"/>
<path d="M28.7848 147.746C29.7213 148.954 29.5743 150.995 28.3329 150.77C27.0916 150.545 24.7015 147.094 26.1552 147.105C27.0681 147.119 27.9663 147.339 28.7848 147.746Z" fill="#234C24"/>
<path d="M61.0869 74.224C58.9744 72.5232 58.3973 68.9349 60.6404 68.8142C62.8836 68.6935 68.4152 73.6699 65.8617 74.257C64.2876 74.6054 62.6561 74.5942 61.0869 74.224Z" fill="#4A9151"/>
<path d="M69.9995 59.0537V59.3552C69.9995 59.2072 69.9995 59.125 69.9995 59.125C69.9995 59.125 69.9886 59.0756 69.9995 59.0537Z" fill="#234C24"/>
<path d="M48.4561 71.1637C49.8172 67.2133 54.6737 64.5249 55.9967 67.7291C57.3197 70.9333 53.0185 81.5665 50.868 78.1538C49.5567 76.0342 48.7327 73.6459 48.4561 71.1637Z" fill="#4A9151"/>
<path d="M69.9996 47.208V54.5382C66.3572 54.2803 63.0361 51.4876 65.0615 49.1832C65.8781 48.2505 67.8763 47.5537 69.9996 47.208Z" fill="#4A9151"/>
<path d="M53.5083 59.2619C53.8676 56.5679 56.628 54.2196 57.8639 56.0906C59.0998 57.9616 57.7332 65.3082 55.9202 63.4044C54.8198 62.2221 53.9957 60.8067 53.5083 59.2619Z" fill="#234C24"/>
<path d="M47.6286 51.6967C45.2765 50.3579 44.1441 46.9013 46.3382 46.4294C48.5323 45.9576 54.7772 49.9793 52.3272 50.9669C50.8343 51.5593 49.2291 51.8086 47.6286 51.6967Z" fill="#307735"/>
<path d="M61.9033 59.3334C61.9033 56.5901 64.3098 53.9071 65.807 55.5915C67.3043 57.2759 66.8959 64.7433 64.8706 63.1028C63.6147 62.0852 62.6009 60.7973 61.9033 59.3334Z" fill="#4A9151"/>
<path d="M63.4719 41.8366C65.9056 40.657 69.3737 41.683 68.508 43.768C67.6424 45.8529 60.8041 48.706 61.3812 46.1602C61.749 44.5797 62.4634 43.1024 63.4719 41.8366Z" fill="#4A9151"/>
<path d="M62.2955 66.7791C60.9235 67.443 58.9744 66.8614 59.4644 65.6818C59.9544 64.5022 63.82 62.9001 63.477 64.3431C63.2698 65.2342 62.866 66.0669 62.2955 66.7791Z" fill="#307735"/>
<path d="M57.3683 84.7528C55.9963 85.4167 54.0472 84.8296 54.5372 83.6554C55.0272 82.4813 58.8928 80.8682 58.5498 82.3167C58.3426 83.2079 57.9388 84.0405 57.3683 84.7528Z" fill="#234C24"/>
<path d="M60.6623 52.5633C59.2903 53.2217 57.3466 52.6401 57.8312 51.466C58.3157 50.2918 62.1868 48.6842 61.8492 50.1327C61.6381 51.0218 61.2326 51.8522 60.6623 52.5633Z" fill="#4A9151"/>
<path d="M46.463 40.6351C45.0964 41.299 43.1473 40.7119 43.6373 39.5378C44.1273 38.3636 47.9929 36.7505 47.6499 38.199C47.4395 39.0901 47.034 39.9224 46.463 40.6351Z" fill="#4A9151"/>
<path d="M69.9996 44.1021V44.8256C69.944 44.7171 69.915 44.5968 69.915 44.4748C69.915 44.3528 69.944 44.2325 69.9996 44.124C69.9996 44.124 69.9941 44.1075 69.9996 44.1021Z" fill="#234C24"/>
<g opacity="0.2">
<path opacity="0.2" d="M31.2562 188.48C29.5248 189.819 26.6174 189.577 26.9605 187.783C27.3035 185.989 32.247 182.576 32.2089 184.711C32.175 186.023 31.8494 187.311 31.2562 188.48Z" fill="#4A9151"/>
<path opacity="0.2" d="M21.2332 178.527C19.4038 177.326 18.6525 174.484 20.4437 174.209C22.2349 173.935 27.086 177.501 25.077 178.165C23.8387 178.574 22.5252 178.698 21.2332 178.527Z" fill="#234C24"/>
<path opacity="0.2" d="M26.4273 197.863C23.6125 196.019 22.4637 191.657 25.2132 191.235C27.9627 190.812 35.3889 196.271 32.3291 197.308C30.4275 197.935 28.411 198.124 26.4273 197.863Z" fill="#4A9151"/>
<path opacity="0.2" d="M17.9124 176.487C17.5041 179.839 14.1013 182.791 12.5278 180.481C10.9543 178.171 12.5605 169.036 14.8417 171.379C16.2309 172.829 17.2802 174.574 17.9124 176.487Z" fill="#4A9151"/>
<path opacity="0.2" d="M18.1357 191.574C16.1049 190.762 14.8146 188.129 16.5024 187.498C18.1902 186.867 23.651 189.391 21.8162 190.455C20.6869 191.099 19.4297 191.481 18.1357 191.574Z" fill="#234C24"/>
<path opacity="0.2" d="M11.1063 194.752C9.60366 196.354 6.69631 196.579 6.75075 194.752C6.8052 192.925 11.1499 188.766 11.4493 190.878C11.6238 192.179 11.5066 193.503 11.1063 194.752Z" fill="#307735"/>
<path opacity="0.2" d="M19.8177 184.947C17.6998 184.426 16.061 181.989 17.6399 181.134C19.2188 180.278 24.9845 182.022 23.3076 183.328C22.2789 184.124 21.0863 184.677 19.8177 184.947Z" fill="#4A9151"/>
<path opacity="0.2" d="M6.50031 180.311C6.05386 178.155 7.52387 175.614 8.97755 176.706C10.4312 177.798 11.3513 183.762 9.46211 182.802C8.30323 182.204 7.29137 181.353 6.50031 180.311Z" fill="#4A9151"/>
<path opacity="0.2" d="M25.6982 186.082C25.9432 187.295 25.1157 188.722 24.2935 188.107C23.4714 187.492 22.9705 184.135 24.0322 184.672C24.684 185.013 25.2529 185.494 25.6982 186.082Z" fill="#307735"/>
<path opacity="0.2" d="M32.449 169.463C32.6994 170.676 31.8664 172.102 31.0498 171.488C30.2331 170.873 29.7268 167.516 30.7884 168.059C31.4391 168.396 32.0065 168.876 32.449 169.463Z" fill="#307735"/>
<path opacity="0.2" d="M38.7319 193.462C38.9769 194.675 38.1494 196.101 37.3272 195.487C36.5051 194.872 36.0042 191.515 37.0659 192.058C37.7179 192.395 38.287 192.875 38.7319 193.462Z" fill="#234C24"/>
<path opacity="0.2" d="M14.3081 184.612C14.5531 185.824 13.7255 187.251 12.9034 186.636C12.0813 186.022 11.5804 182.664 12.6421 183.207C13.2954 183.543 13.865 184.023 14.3081 184.612Z" fill="#4A9151"/>
<path opacity="0.2" d="M2.26482 193.528C2.51526 194.74 1.68226 196.167 0.865586 195.552C0.0489129 194.938 -0.462869 191.58 0.60425 192.118C1.25545 192.457 1.82291 192.938 2.26482 193.528Z" fill="#4A9151"/>
<path opacity="0.2" d="M13.0667 167.357C11.9778 167.944 10.3935 167.549 10.7419 166.583C11.0904 165.618 14.1447 164.169 13.9324 165.349C13.7966 166.075 13.5008 166.761 13.0667 167.357Z" fill="#307735"/>
<path opacity="0.2" d="M10.9487 173.578C11.1937 174.791 10.3661 176.218 9.54403 175.603C8.72191 174.989 8.22102 171.631 9.2827 172.168C9.93444 172.509 10.5034 172.99 10.9487 173.578Z" fill="#234C24"/>
</g>
<g opacity="0.2">
<path opacity="0.2" d="M43.3709 89.3017C41.6396 90.6405 38.7268 90.3991 39.0698 88.6049C39.4128 86.8108 44.3618 83.398 44.3237 85.5324C44.2898 86.8448 43.9642 88.1329 43.3709 89.3017Z" fill="#4A9151"/>
<path opacity="0.2" d="M33.3368 79.3432C31.502 78.1471 30.7561 75.305 32.5473 75.0306C34.3385 74.7563 39.1841 78.3227 37.1806 78.9865C35.9422 79.3951 34.6283 79.517 33.3368 79.3432Z" fill="#234C24"/>
<path opacity="0.2" d="M38.5364 98.6783C35.727 96.8403 34.5728 92.4729 37.3277 92.0559C40.0826 91.6389 47.5252 97.0927 44.4436 98.1297C42.5401 98.7556 40.5214 98.9431 38.5364 98.6783Z" fill="#4A9151"/>
<path opacity="0.2" d="M30.0268 77.3024C29.613 80.6602 26.2156 83.6121 24.6422 81.3022C23.0687 78.9923 24.6748 69.8569 26.9506 72.1943C28.3402 73.6452 29.3911 75.3903 30.0268 77.3024Z" fill="#4A9151"/>
<path opacity="0.2" d="M30.25 92.3898C28.2192 91.5832 26.9234 88.9441 28.6166 88.3187C30.3099 87.6932 35.7707 90.2116 33.9359 91.276C32.805 91.9195 31.5456 92.3 30.25 92.3898Z" fill="#234C24"/>
<path opacity="0.2" d="M23.2152 95.573C21.718 97.1696 18.8052 97.4 18.8596 95.573C18.9141 93.7459 23.2588 89.587 23.5582 91.6994C23.7307 93.0002 23.6135 94.3234 23.2152 95.573Z" fill="#307735"/>
<path opacity="0.2" d="M31.9323 85.7685C29.809 85.2199 28.1757 82.8112 29.7546 81.9553C31.3335 81.0994 37.0937 82.8441 35.4223 84.15C34.392 84.9429 33.2001 85.4957 31.9323 85.7685Z" fill="#4A9151"/>
<path opacity="0.2" d="M18.6149 81.132C18.163 78.9757 19.633 76.4354 21.0921 77.5218C22.5512 78.6081 23.4659 84.5831 21.5767 83.623C20.4171 83.0261 19.405 82.1749 18.6149 81.132Z" fill="#4A9151"/>
<path opacity="0.2" d="M37.8069 86.9047C38.0574 88.1173 37.2243 89.5438 36.4077 88.9293C35.591 88.3148 35.0847 84.9515 36.1463 85.4947C36.7975 85.8336 37.365 86.3155 37.8069 86.9047Z" fill="#307735"/>
<path opacity="0.2" d="M44.5632 70.2845C44.8136 71.4971 43.9806 72.9236 43.1639 72.3091C42.3473 71.6946 41.8355 68.3368 42.9026 68.8745C43.5538 69.2134 44.1212 69.6953 44.5632 70.2845Z" fill="#307735"/>
<path opacity="0.2" d="M50.8406 94.2831C51.091 95.4957 50.258 96.9222 49.4414 96.3077C48.6247 95.6932 48.1184 92.3353 49.18 92.8785C49.8307 93.2159 50.3981 93.6958 50.8406 94.2831Z" fill="#234C24"/>
<path opacity="0.2" d="M26.4173 85.433C26.6677 86.6455 25.8347 88.0721 25.018 87.4576C24.2014 86.8431 23.695 83.4852 24.7567 84.0229C25.4079 84.3619 25.9753 84.8437 26.4173 85.433Z" fill="#4A9151"/>
<path opacity="0.2" d="M14.3793 94.3495C14.6297 95.5621 13.7967 96.9886 12.98 96.3741C12.1634 95.7596 11.6516 92.4017 12.7132 92.9394C13.3664 93.2777 13.9358 93.7596 14.3793 94.3495Z" fill="#4A9151"/>
<path opacity="0.2" d="M25.1535 68.1777C24.0646 68.7648 22.4748 68.3697 22.8287 67.4041C23.1826 66.4384 26.2315 64.9899 26.0191 66.1696C25.8821 66.8954 25.5864 67.5814 25.1535 68.1777Z" fill="#307735"/>
<path opacity="0.2" d="M23.0579 74.3998C23.3083 75.6123 22.4753 77.0389 21.6587 76.4244C20.842 75.8099 20.3356 72.452 21.3973 72.9897C22.0485 73.3287 22.616 73.8105 23.0579 74.3998Z" fill="#234C24"/>
</g>
<g opacity="0.2">
<path opacity="0.2" d="M66.1286 33.1793C63.9508 33.1793 61.8057 31.1602 63.1723 29.9641C64.5388 28.768 70.5223 29.1521 69.1612 30.8036C68.3383 31.813 67.3023 32.6247 66.1286 33.1793Z" fill="#4A9151"/>
<path opacity="0.2" d="M64.3273 19.1165C63.6195 17.0371 64.7683 14.3321 66.3472 15.2319C67.9261 16.1318 69.5649 21.9422 67.5722 21.2234C66.3482 20.7737 65.2396 20.0538 64.3273 19.1165Z" fill="#234C24"/>
<path opacity="0.2" d="M56.5852 37.5685C55.4963 34.3752 57.2657 30.2218 59.6885 31.599C62.1113 32.9761 64.6321 41.903 61.5669 40.8056C59.6878 40.1139 57.9858 39.0079 56.5852 37.5685Z" fill="#4A9151"/>
<path opacity="0.2" d="M62.9712 15.4512C60.5974 17.8379 56.1166 18.0519 56.2854 15.2537C56.4542 12.4555 63.3197 6.29394 63.7008 9.52011C63.8993 11.5272 63.6501 13.5537 62.9712 15.4512Z" fill="#4A9151"/>
<path opacity="0.2" d="M53.901 27.4676C52.8121 25.5692 53.3946 22.6887 55.1205 23.2538C56.8464 23.8189 59.5905 29.1904 57.4943 28.8886C56.2067 28.6896 54.9793 28.2041 53.901 27.4676Z" fill="#234C24"/>
<path opacity="0.2" d="M46.4305 25.5961C44.2527 25.9253 41.8408 24.2958 43.0005 22.8912C44.1602 21.4866 50.1328 20.916 49.0711 22.765C48.413 23.8965 47.5105 24.8642 46.4305 25.5961Z" fill="#307735"/>
<path opacity="0.2" d="M59.2906 23.3031C57.9404 21.5748 58.1419 18.6395 59.9276 18.9632C61.7134 19.2869 65.1598 24.2304 63.0473 24.2139C61.7434 24.1964 60.4598 23.8852 59.2906 23.3031Z" fill="#4A9151"/>
<path opacity="0.2" d="M51.6467 11.3693C52.6104 9.39405 55.3272 8.31317 55.8063 10.0744C56.2854 11.8356 53.3563 17.1028 52.4525 15.1715C51.9053 13.9807 51.6299 12.6814 51.6467 11.3693Z" fill="#4A9151"/>
<path opacity="0.2" d="M63.2216 27.8457C62.6771 28.943 61.1472 29.5575 60.8805 28.5699C60.6137 27.5823 62.2688 24.614 62.7751 25.7004C63.0816 26.3728 63.2341 27.1059 63.2216 27.8457Z" fill="#307735"/>
<path opacity="0.2" d="M68.9599 41.7598C68.4154 42.8571 66.8855 43.4716 66.6187 42.484C66.352 41.4964 68.0071 38.5281 68.5134 39.6145C68.8198 40.2868 68.9724 41.02 68.9599 41.7598Z" fill="#234C24"/>
<path opacity="0.2" d="M55.1577 19.6103C54.6132 20.7077 53.0833 21.3222 52.8111 20.3346C52.5389 19.347 54.2049 16.3787 54.7112 17.465C55.0142 18.1386 55.1666 18.8709 55.1577 19.6103Z" fill="#4A9151"/>
<path opacity="0.2" d="M40.224 19.1387C39.6796 20.236 38.1497 20.856 37.8829 19.863C37.6161 18.8699 39.2712 15.9125 39.7776 16.9989C40.0806 17.6705 40.233 18.401 40.224 19.1387Z" fill="#4A9151"/>
<path opacity="0.2" d="M64.724 5.24063C63.5153 5.03213 62.5026 3.7263 63.3683 3.18312C64.234 2.63994 67.5224 3.40259 66.635 4.19816C66.0834 4.6854 65.4304 5.04165 64.724 5.24063Z" fill="#307735"/>
<path opacity="0.2" d="M59.269 8.83451C58.7246 9.93185 57.1947 10.5518 56.9224 9.55876C56.6502 8.56567 58.3162 5.60834 58.8226 6.6947C59.1256 7.36625 59.278 8.09685 59.269 8.83451Z" fill="#234C24"/>
</g>
<path d="M366 78H359.818C356.003 75.0832 350.075 70.848 341.102 65.0843C332.515 59.579 321.918 54.8002 311.597 50.5381C298.005 44.9574 284.866 40.3132 277.363 36.277C268.357 31.4175 267.636 21.4832 268.109 15.6173C268.218 14.063 268.45 12.5193 268.803 11C268.953 12.9438 269.219 14.8772 269.601 16.7905C270.658 22.2689 273.058 30.2443 278.348 34.5496C282.812 38.1767 294.631 41.4971 307.853 46.023C319.964 50.156 333.219 55.29 343.128 62.5927C352.244 69.3304 360.088 74.4159 366 78Z" fill="#442D20"/>
<path d="M266.718 12.1432C269.549 11.0164 273.375 12.425 272.24 14.6735C271.106 16.922 263.156 19.5957 264.027 16.7837C264.565 15.057 265.484 13.4715 266.718 12.1432Z" fill="#4A9151"/>
<path d="M276.489 29.0958C278.505 31.3699 278.449 35.4214 275.938 35.1141C273.427 34.8068 268.235 28.2763 271.189 28.1329C273.006 28.0565 274.817 28.3855 276.489 29.0958Z" fill="#234C24"/>
<path d="M276.727 1.51535C279.821 5.00852 279.738 11.247 275.876 10.7348C272.014 10.2227 264.049 0.260474 268.581 0.0146206C271.375 -0.0954741 274.158 0.417311 276.727 1.51535Z" fill="#4A9151"/>
<path d="M280.17 33.046C281.975 28.7538 287.641 26.1057 288.905 29.7628C290.168 33.4199 284.589 44.9186 282.403 40.9901C281.071 38.541 280.308 35.8264 280.17 33.046Z" fill="#4A9151"/>
<path d="M285.522 12.9575C287.951 14.7911 288.703 18.7709 286.177 18.9604C283.651 19.1499 277.267 13.777 280.129 13.0548C281.897 12.6214 283.74 12.5882 285.522 12.9575Z" fill="#234C24"/>
<path d="M296.154 11.3747C298.768 9.83815 302.769 10.6013 302.011 13.0035C301.253 15.4057 293.865 19.2933 294.257 16.4045C294.501 14.6077 295.15 12.8887 296.154 11.3747Z" fill="#307735"/>
<path d="M280.779 21.1115C283.434 22.5968 284.728 26.4383 282.253 26.971C279.778 27.5036 272.715 23.0629 275.452 21.9361C277.144 21.2718 278.964 20.9901 280.779 21.1115Z" fill="#4A9151"/>
<path d="M296.958 32.2468C296.756 35.2688 293.828 38.0859 292.276 36.0985C290.724 34.1112 291.719 25.8547 293.91 27.8317C295.245 29.0587 296.287 30.5674 296.958 32.2468Z" fill="#4A9151"/>
<path d="M273.303 17.4291C273.422 15.7235 275.072 14.1459 275.943 15.2676C276.814 16.3893 276.237 21.0144 275.015 19.8978C274.267 19.2117 273.682 18.3683 273.303 17.4291Z" fill="#307735"/>
<path d="M258 36.8928C258.119 35.1923 259.768 33.6096 260.64 34.7313C261.511 35.853 260.939 40.4986 259.712 39.382C258.962 38.6889 258.377 37.8385 258 36.8928V36.8928Z" fill="#307735"/>
<path d="M258.516 2.73995C258.65 1.03946 260.305 -0.54322 261.176 0.578485C262.047 1.70019 261.47 6.34067 260.243 5.22921C259.488 4.53765 258.897 3.68717 258.516 2.73995Z" fill="#234C24"/>
<path d="M288.069 23.6154C288.188 21.9149 289.843 20.3323 290.714 21.454C291.586 22.5757 291.008 27.2213 289.781 26.1047C289.031 25.4116 288.447 24.5612 288.069 23.6154Z" fill="#4A9151"/>
<path d="M307.601 16.3068C307.719 14.6064 309.369 13.0237 310.24 14.1454C311.112 15.2671 310.539 19.9127 309.312 18.7961C308.563 18.103 307.978 17.2526 307.601 16.3068Z" fill="#4A9151"/>
<path d="M283.321 46.967C284.992 46.5982 286.987 47.7199 286.157 48.8672C285.327 50.0146 280.676 50.7931 281.403 49.3077C281.858 48.3945 282.513 47.5945 283.321 46.967Z" fill="#307735"/>
<path d="M288.461 39.504C288.58 37.8035 290.235 36.2259 291.106 37.3425C291.978 38.4591 291.4 43.1098 290.173 42.0137C289.421 41.3147 288.836 40.4571 288.461 39.504Z" fill="#234C24"/>
<path d="M348.559 59.7924C345.934 61.329 341.938 60.53 342.712 58.1329C343.485 55.7358 350.905 51.8841 350.497 54.7934C350.235 56.5826 349.572 58.2907 348.559 59.7924Z" fill="#4A9151"/>
<path d="M336.278 44.5293C333.937 42.5881 333.36 38.5776 335.891 38.5008C338.423 38.4239 344.564 44.0786 341.666 44.6471C339.883 45.0067 338.043 44.9664 336.278 44.5293Z" fill="#234C24"/>
<path d="M340.315 71.8189C336.706 68.8431 335.84 62.6813 339.727 62.5584C343.615 62.4355 353.04 71.1223 348.595 72.0391C345.853 72.5784 343.024 72.5032 340.315 71.8189Z" fill="#4A9151"/>
<path d="M332.019 41.1949C330.901 45.7125 325.714 49.1903 323.899 45.774C322.084 42.3576 325.822 30.1315 328.596 33.7067C330.285 35.9178 331.455 38.4764 332.019 41.1949Z" fill="#4A9151"/>
<path d="M329.853 61.8621C327.172 60.4177 325.811 56.6018 328.275 56.023C330.74 55.4443 337.881 59.7877 335.164 60.9401C333.485 61.636 331.67 61.951 329.853 61.8621Z" fill="#234C24"/>
<path d="M319.577 65.0629C317.231 66.999 313.158 66.8351 313.54 64.3459C313.921 61.8566 320.624 56.8832 320.691 59.8232C320.717 61.6304 320.337 63.4206 319.577 65.0629Z" fill="#307735"/>
<path d="M333.277 53.0775C330.421 52.0121 328.549 48.4165 330.91 47.5099C333.272 46.6033 340.949 49.9326 338.412 51.4436C336.844 52.3608 335.09 52.919 333.277 53.0775Z" fill="#4A9151"/>
<path d="M315.567 44.575C315.298 41.5531 317.753 38.3263 319.599 40.0524C321.444 41.7785 321.728 50.0914 319.263 48.4677C317.755 47.4596 316.492 46.1297 315.567 44.575Z" fill="#4A9151"/>
<path d="M341.238 55.5925C341.387 57.293 339.995 59.1061 338.964 58.1535C337.933 57.2008 337.778 52.5193 339.165 53.4157C340.009 53.9809 340.717 54.7242 341.238 55.5925Z" fill="#307735"/>
<path d="M353.339 33.988C353.483 35.6834 352.096 37.5017 351.065 36.549C350.034 35.5963 349.879 30.9148 351.261 31.8112C352.108 32.374 352.818 33.1177 353.339 33.988Z" fill="#307735"/>
<path d="M358.104 67.8341C358.253 69.5295 356.866 71.3426 355.83 70.3951C354.793 69.4475 354.644 64.7609 356.031 65.6573C356.876 66.2204 357.585 66.9641 358.104 67.8341Z" fill="#234C24"/>
<path d="M325.683 51.7155C325.832 53.416 324.445 55.2292 323.409 54.2765C322.373 53.3238 322.223 48.6424 323.61 49.5387C324.456 50.1008 325.165 50.8447 325.683 51.7155Z" fill="#4A9151"/>
<path d="M307.497 61.9231C307.647 63.6235 306.26 65.4367 305.223 64.484C304.187 63.5314 304.037 58.8499 305.424 59.7462C306.271 60.3083 306.979 61.0523 307.497 61.9231Z" fill="#4A9151"/>
<path d="M326.765 27.9141C325.167 28.539 323.022 27.7348 323.671 26.4748C324.321 25.2148 328.786 23.7346 328.312 25.3121C328 26.2843 327.472 27.1738 326.765 27.9141Z" fill="#307735"/>
<path d="M322.836 36.0772C322.98 37.7726 321.593 39.5858 320.562 38.6382C319.531 37.6907 319.376 33.0041 320.763 33.9004C321.607 34.4654 322.315 35.2087 322.836 36.0772Z" fill="#234C24"/>
<g opacity="0.2">
<path opacity="0.2" d="M314.143 43.5862C312.261 44.4416 309.627 43.5862 310.323 42.0497C311.019 40.5131 316.299 38.4233 315.814 40.3543C315.507 41.5422 314.937 42.6467 314.143 43.5862Z" fill="#4A9151"/>
<path opacity="0.2" d="M306.982 32.415C305.543 30.9399 305.435 28.1945 307.157 28.3175C308.879 28.4404 312.597 32.7019 310.601 32.8965C309.374 33.0052 308.137 32.8408 306.982 32.415Z" fill="#234C24"/>
<path opacity="0.2" d="M307.709 51.1002C305.503 48.8363 305.358 44.621 307.988 44.8156C310.617 45.0102 316.34 51.5458 313.273 51.8429C311.386 52.0105 309.485 51.7568 307.709 51.1002Z" fill="#4A9151"/>
<path opacity="0.2" d="M304.347 29.8599C303.265 32.8255 299.511 34.8026 298.537 32.3645C297.562 29.9265 300.975 21.9619 302.584 24.5689C303.561 26.1803 304.163 27.9879 304.347 29.8599Z" fill="#4A9151"/>
<path opacity="0.2" d="M301.383 43.6371C299.676 42.4744 299.037 39.8008 300.743 39.5908C302.45 39.3808 306.931 42.8176 305.028 43.3964C303.846 43.7462 302.601 43.8285 301.383 43.6371Z" fill="#234C24"/>
<path opacity="0.2" d="M294.221 45.0511C292.499 46.1882 289.766 45.7835 290.205 44.1343C290.643 42.485 295.526 39.6116 295.361 41.5733C295.248 42.8027 294.858 43.9913 294.221 45.0511Z" fill="#307735"/>
<path opacity="0.2" d="M304.327 37.9623C302.481 37.0404 301.481 34.4794 303.141 34.0389C304.801 33.5984 309.73 36.395 307.91 37.2299C306.786 37.7374 305.561 37.9877 304.327 37.9623Z" fill="#4A9151"/>
<path opacity="0.2" d="M293.009 30.9401C293.051 28.8913 294.943 26.8835 296.056 28.1794C297.17 29.4752 296.763 35.0991 295.221 33.8135C294.278 33.0306 293.523 32.0491 293.009 30.9401Z" fill="#4A9151"/>
<path opacity="0.2" d="M309.514 40.2312C309.514 41.3888 308.421 42.5105 307.797 41.7678C307.173 41.0251 307.41 37.8751 308.276 38.5922C308.807 39.0394 309.23 39.5996 309.514 40.2312Z" fill="#307735"/>
<path opacity="0.2" d="M319.243 26.5354C319.243 27.693 318.15 28.8147 317.526 28.072C316.902 27.3293 317.14 24.1793 318.006 24.8964C318.537 25.3436 318.96 25.9038 319.243 26.5354Z" fill="#307735"/>
<path opacity="0.2" d="M319.99 49.6966C319.99 50.8541 318.897 51.9758 318.273 51.2331C317.649 50.4905 317.887 47.3405 318.753 48.0575C319.283 48.5054 319.706 49.0654 319.99 49.6966Z" fill="#234C24"/>
<path opacity="0.2" d="M299.31 36.4978C299.284 37.6554 298.217 38.7771 297.593 38.0344C296.969 37.2917 297.201 34.1417 298.073 34.8588C298.603 35.3066 299.026 35.8666 299.31 36.4978Z" fill="#4A9151"/>
<path opacity="0.2" d="M286.322 42.076C286.322 43.2335 285.229 44.3552 284.605 43.6125C283.981 42.8699 284.213 39.7199 285.085 40.4369C285.616 40.8842 286.039 41.4443 286.322 42.076Z" fill="#4A9151"/>
<path opacity="0.2" d="M301.77 20.5322C300.651 20.8395 299.259 20.143 299.785 19.3388C300.31 18.5347 303.435 17.8586 302.992 18.8881C302.713 19.5201 302.296 20.0819 301.77 20.5322Z" fill="#307735"/>
<path opacity="0.2" d="M298.532 25.7516C298.532 26.9091 297.439 28.0308 296.81 27.2881C296.181 26.5455 296.423 23.3955 297.289 24.1074C297.821 24.5573 298.245 25.1189 298.532 25.7516Z" fill="#234C24"/>
</g>
<path d="M45.5833 201H49.2361C49.5292 200.669 49.9188 200.246 50.4202 199.717C51.0219 199.079 51.7895 198.289 52.7345 197.348C54.7171 195.404 57.502 192.779 61.3167 189.458C71.1024 180.945 83.0982 176.811 89.1964 172.273C95.2097 167.805 98.9473 152.599 99.063 152.125C98.9087 152.541 93.9252 165.946 89.3815 170.737C84.7529 175.606 72.1862 176.656 61.4324 187.167C56.8989 191.669 52.1147 195.907 47.1031 199.861C46.4975 200.331 45.9883 200.712 45.5833 201Z" fill="#442D20"/>
<path d="M44.1057 201H47.9629C48.6147 200.642 49.4286 200.222 50.4315 199.717C51.8856 198.997 53.7409 198.134 56.0745 197.127C64.1283 193.654 74.9129 193.055 80.0622 191.34C85.2116 189.625 86.5269 181.167 86.5269 181.167C86.5269 181.167 83.688 188.357 80.0121 190.5C76.3362 192.643 64.5371 191.356 55.8392 195.836C54.7541 196.393 53.7255 196.905 52.7535 197.372C50.5819 198.41 48.6842 199.235 47.1104 199.876C45.9147 200.343 44.9119 200.72 44.1057 201Z" fill="#442D20"/>
<path d="M77.7291 161.135C78.6317 162.838 81.0385 163.709 81.4127 162.15C81.7868 160.59 79.0598 156.06 78.327 157.779C77.8819 158.838 77.6776 159.985 77.7291 161.135Z" fill="#4A9151"/>
<path d="M89.3159 156.853C91.2098 156.566 92.8298 154.567 91.4991 153.696C90.1683 152.825 85.019 153.89 86.3767 155.162C87.2193 155.939 88.2235 156.517 89.3159 156.853Z" fill="#234C24"/>
<path d="M78.2146 170.39C81.1191 169.947 83.6147 166.89 81.5627 165.541C79.5107 164.192 71.615 165.837 73.7018 167.793C74.9957 168.986 76.5375 169.874 78.2146 170.39Z" fill="#4A9151"/>
<path d="M92.6947 156.434C91.8152 159.261 93.4661 162.858 95.5528 161.591C97.6395 160.323 99.6376 152.44 96.9838 153.475C95.3535 154.127 93.8881 155.138 92.6947 156.434Z" fill="#4A9151"/>
<path d="M87.0903 168.396C89.0189 168.493 90.9822 166.86 89.8482 165.736C88.7142 164.612 83.4607 164.635 84.5408 166.156C85.2158 167.084 86.0866 167.849 87.0903 168.396Z" fill="#234C24"/>
<path d="M91.5607 173.506C92.1817 175.33 94.4227 176.575 95.0321 175.097C95.6416 173.619 93.6744 168.723 92.6754 170.279C92.0692 171.257 91.6883 172.36 91.5607 173.506Z" fill="#307735"/>
<path d="M88.1127 162.5C89.995 162.858 92.1782 161.512 91.1985 160.245C90.2187 158.977 85.027 158.273 85.8833 159.926C86.4267 160.941 87.1885 161.82 88.1127 162.5Z" fill="#4A9151"/>
<path d="M100.425 163.667C101.559 162.111 101.296 159.545 99.742 159.883C98.1875 160.221 95.3101 164.647 97.1654 164.577C98.3054 164.522 99.4189 164.211 100.425 163.667Z" fill="#4A9151"/>
<path d="M83.0327 161.252C82.3962 162.131 82.5467 163.585 83.4184 163.379C84.2901 163.173 85.9024 160.692 84.861 160.735C84.2208 160.767 83.5961 160.944 83.0327 161.252Z" fill="#307735"/>
<path d="M83.6143 145.518C82.9779 146.397 83.1283 147.851 84 147.645C84.8717 147.439 86.4879 144.958 85.4464 145.001C84.805 145.032 84.1789 145.209 83.6143 145.518Z" fill="#307735"/>
<path d="M69.9832 162.387C69.3468 163.262 69.5011 164.721 70.3689 164.515C71.2368 164.309 72.8568 161.824 71.8115 161.87C71.1714 161.903 70.5466 162.079 69.9832 162.387Z" fill="#234C24"/>
<path d="M92.6483 164.239C92.0158 165.118 92.1662 166.572 93.0341 166.37C93.9019 166.168 95.5258 163.667 94.4805 163.722C93.8394 163.756 93.2137 163.932 92.6483 164.239Z" fill="#4A9151"/>
<path d="M99.0556 175.754C98.4192 176.633 98.5696 178.087 99.4413 177.885C100.313 177.683 101.925 175.194 100.884 175.24C100.244 175.272 99.6194 175.447 99.0556 175.754Z" fill="#4A9151"/>
<path d="M99.8613 150.923C100.513 151.786 101.929 152.055 101.998 151.156C102.068 150.258 100.147 147.987 99.8921 149.006C99.7405 149.635 99.7299 150.289 99.8613 150.923Z" fill="#307735"/>
<path d="M99.2978 156.667C98.6614 157.546 98.8118 159 99.6835 158.798C100.555 158.596 102.168 156.107 101.126 156.149C100.486 156.184 99.862 156.361 99.2978 156.667Z" fill="#234C24"/>
<g opacity="0.2">
<path opacity="0.2" d="M68.8265 192.386C70.2306 193.035 72.2016 192.405 71.6847 191.219C71.1678 190.033 67.2142 188.466 67.573 189.936C67.8039 190.837 68.2322 191.674 68.8265 192.386Z" fill="#4A9151"/>
<path opacity="0.2" d="M74.2076 183.889C75.2837 182.769 75.3647 180.684 74.0726 180.777C72.7804 180.871 69.984 184.126 71.496 184.277C72.4173 184.352 73.3435 184.219 74.2076 183.889Z" fill="#234C24"/>
<path opacity="0.2" d="M73.6559 198.093C75.3106 196.371 75.4186 193.174 73.4514 193.322C71.4843 193.47 67.2028 198.428 69.494 198.665C70.9062 198.79 72.3282 198.595 73.6559 198.093Z" fill="#4A9151"/>
<path opacity="0.2" d="M76.1547 181.967C76.9685 184.215 79.7727 185.716 80.5017 183.865C81.2307 182.014 78.6773 175.967 77.4738 177.946C76.7428 179.171 76.2922 180.545 76.1547 181.967Z" fill="#4A9151"/>
<path opacity="0.2" d="M78.3929 192.444C79.6658 191.561 80.144 189.531 78.8712 189.372C77.5983 189.212 74.2426 191.822 75.662 192.261C76.5473 192.527 77.4805 192.59 78.3929 192.444Z" fill="#234C24"/>
<path opacity="0.2" d="M83.7462 193.498C85.0344 194.361 87.0787 194.054 86.7547 192.802C86.4307 191.55 82.7741 189.372 82.8976 190.857C82.9808 191.791 83.2708 192.693 83.7462 193.498Z" fill="#307735"/>
<path opacity="0.2" d="M76.1864 188.115C77.5672 187.415 78.3155 185.471 77.0774 185.137C75.8392 184.802 72.1479 186.925 73.5095 187.563C74.3497 187.947 75.2644 188.135 76.1864 188.115Z" fill="#4A9151"/>
<path opacity="0.2" d="M84.6411 182.784C84.6141 181.229 83.1985 179.704 82.3615 180.688C81.5245 181.672 81.8331 185.946 82.9902 184.966C83.6947 184.371 84.2587 183.626 84.6411 182.784Z" fill="#4A9151"/>
<path opacity="0.2" d="M72.2985 189.838C72.2985 190.717 73.1124 191.569 73.5829 191.005C74.0535 190.441 73.8722 188.046 73.2242 188.59C72.827 188.931 72.5107 189.358 72.2985 189.838Z" fill="#307735"/>
<path opacity="0.2" d="M65.0271 179.44C65.0271 180.319 65.8448 181.17 66.3154 180.606C66.7859 180.042 66.6046 177.651 65.9566 178.195C65.5595 178.536 65.2421 178.961 65.0271 179.44Z" fill="#307735"/>
<path opacity="0.2" d="M64.468 197.021C64.468 197.9 65.2857 198.752 65.7563 198.188C66.2269 197.624 66.0456 195.228 65.3976 195.773C64.9984 196.113 64.6807 196.54 64.468 197.021Z" fill="#234C24"/>
<path opacity="0.2" d="M79.943 186.999C79.943 187.878 80.7569 188.73 81.2275 188.166C81.698 187.602 81.5168 185.206 80.8687 185.751C80.4715 186.092 80.1552 186.518 79.943 186.999Z" fill="#4A9151"/>
<path opacity="0.2" d="M89.6554 191.238C89.6554 192.117 90.4693 192.969 90.9399 192.405C91.4104 191.841 91.2292 189.449 90.5812 189.994C90.1844 190.334 89.8681 190.759 89.6554 191.238Z" fill="#4A9151"/>
<path opacity="0.2" d="M78.0838 174.882C78.9247 175.115 79.9623 174.586 79.5688 173.976C79.1754 173.365 76.8418 172.852 77.1735 173.633C77.3812 174.113 77.6922 174.539 78.0838 174.882Z" fill="#307735"/>
<path opacity="0.2" d="M80.5258 178.833C80.5451 179.712 81.3435 180.563 81.8102 179.999C82.2769 179.436 82.0995 177.044 81.4515 177.588C81.0547 177.928 80.7384 178.354 80.5258 178.833Z" fill="#234C24"/>
</g>
<g opacity="0.2">
<path opacity="0.2" d="M39.3261 192.056C40.5526 193.005 42.6162 192.834 42.3694 191.562C42.1225 190.29 38.624 187.871 38.651 189.384C38.6751 190.314 38.9057 191.227 39.3261 192.056Z" fill="#4A9151"/>
<path opacity="0.2" d="M46.4358 184.998C47.7318 184.15 48.2641 182.136 46.9951 181.941C45.7261 181.747 42.2894 184.275 43.7127 184.745C44.5905 185.032 45.5208 185.119 46.4358 184.998Z" fill="#234C24"/>
<path opacity="0.2" d="M42.7483 198.702C44.7424 197.399 45.5602 194.304 43.6084 194.004C41.6567 193.705 36.3839 197.574 38.5671 198.313C39.9148 198.755 41.3432 198.887 42.7483 198.702Z" fill="#4A9151"/>
<path opacity="0.2" d="M48.7694 183.551C49.0626 185.928 51.4694 188.024 52.5842 186.386C53.6989 184.749 52.561 178.274 50.9487 179.931C49.9626 180.958 49.2179 182.195 48.7694 183.551Z" fill="#4A9151"/>
<path opacity="0.2" d="M48.6222 194.245C50.0609 193.674 50.9751 191.803 49.7793 191.36C48.5836 190.917 44.711 192.698 46.0109 193.452C46.8121 193.909 47.7041 194.18 48.6222 194.245Z" fill="#234C24"/>
<path opacity="0.2" d="M53.6056 196.501C54.6663 197.633 56.7299 197.796 56.6914 196.501C56.6528 195.206 53.5748 192.259 53.3626 193.756C53.239 194.678 53.3221 195.616 53.6056 196.501Z" fill="#307735"/>
<path opacity="0.2" d="M47.4305 189.547C48.931 189.159 50.092 187.451 48.9734 186.849C47.8548 186.246 43.7701 187.479 44.9581 188.404C45.6876 188.966 46.5323 189.357 47.4305 189.547Z" fill="#4A9151"/>
<path opacity="0.2" d="M56.869 186.261C57.1891 184.737 56.1438 182.936 55.114 183.706C54.0841 184.476 53.4322 188.708 54.7707 188.031C55.5933 187.608 56.3105 187.003 56.869 186.261Z" fill="#4A9151"/>
<path opacity="0.2" d="M43.2687 190.352C43.0913 191.212 43.6814 192.223 44.26 191.787C44.8386 191.352 45.1973 188.972 44.4452 189.357C43.9842 189.596 43.5822 189.936 43.2687 190.352Z" fill="#307735"/>
<path opacity="0.2" d="M38.4816 178.577C38.3042 179.437 38.8943 180.448 39.4729 180.012C40.0515 179.577 40.4102 177.197 39.6581 177.578C39.1967 177.818 38.7947 178.16 38.4816 178.577Z" fill="#307735"/>
<path opacity="0.2" d="M34.0308 195.586C33.8573 196.446 34.4435 197.457 35.026 197.021C35.6084 196.586 35.9633 194.206 35.2111 194.587C34.7494 194.828 34.3463 195.17 34.0308 195.586Z" fill="#234C24"/>
<path opacity="0.2" d="M51.334 189.334C51.1605 190.193 51.7468 191.205 52.3292 190.769C52.9116 190.333 53.2665 187.954 52.5143 188.335C52.0526 188.576 51.6495 188.917 51.334 189.334Z" fill="#4A9151"/>
<path opacity="0.2" d="M59.8662 195.634C59.6888 196.494 60.2789 197.505 60.8575 197.069C61.436 196.634 61.7986 194.25 61.0426 194.635C60.5813 194.875 60.1793 195.216 59.8662 195.634Z" fill="#4A9151"/>
<path opacity="0.2" d="M52.2401 177.084C53.0115 177.5 54.134 177.216 53.8871 176.532C53.6403 175.847 51.4764 174.825 51.6268 175.661C51.7239 176.175 51.9334 176.661 52.2401 177.084Z" fill="#307735"/>
<path opacity="0.2" d="M53.7179 181.494C53.5405 182.353 54.1307 183.365 54.7092 182.929C55.2878 182.493 55.6465 180.11 54.8944 180.495C54.433 180.735 54.031 181.076 53.7179 181.494Z" fill="#234C24"/>
</g>
</svg>
